<?xml version="1.0" standalone="no"?>
<!DOCTYPE svg PUBLIC "-//W3C//DTD SVG 20010904//EN"
 "http://www.w3.org/TR/2001/REC-SVG-20010904/DTD/svg10.dtd">
<svg version="1.0" xmlns="http://www.w3.org/2000/svg"
 width="250.000000pt" height="250.000000pt" viewBox="0 0 250.000000 250.000000"
 preserveAspectRatio="xMidYMid meet">

<g transform="translate(0.000000,250.000000) scale(0.100000,-0.100000)"
fill="#000000" stroke="none">
<path d="M0 1250 l0 -1250 1250 0 1250 0 0 1250 0 1250 -1250 0 -1250 0 0
-1250z m759 169 c38 -13 38 -20 5 -56 l-25 -28 6 32 c6 28 4 31 -14 26 -12 -3
-24 -16 -27 -29 -9 -36 -34 -30 -34 7 0 27 -2 30 -15 19 -8 -7 -15 -21 -15
-31 0 -18 -17 -35 -26 -26 -3 3 -1 20 4 38 13 53 70 73 141 48z m659 -8 c18
-6 73 -11 122 -12 107 -2 205 -27 229 -57 10 -13 32 -23 56 -26 71 -9 78 -12
82 -32 8 -39 11 -89 4 -94 -36 -30 -65 -76 -70 -112 -6 -41 -6 -41 -76 -66
-66 -22 -76 -23 -160 -13 -49 5 -124 13 -165 17 -41 4 -84 8 -95 10 -11 1 -27
3 -35 3 -30 2 -41 17 -34 44 3 15 12 27 20 27 10 0 14 16 14 63 0 34 3 106 7
160 l6 97 31 0 c17 0 46 -4 64 -9z m-578 -21 c0 -5 -4 -10 -10 -10 -5 0 -10 5
-10 10 0 6 5 10 10 10 6 0 10 -4 10 -10z m158 -12 c-4 -25 -28 -37 -28 -14 0
11 -10 16 -32 17 -31 1 -31 2 -8 8 54 15 72 12 68 -11z m-88 -38 c0 -5 -2 -10
-4 -10 -3 0 -8 5 -11 10 -3 6 -1 10 4 10 6 0 11 -4 11 -10z m-280 -54 c0 -3
-4 -8 -10 -11 -5 -3 -10 -1 -10 4 0 6 5 11 10 11 6 0 10 -2 10 -4z m10 -52 c0
-8 -4 -12 -10 -9 -5 3 -10 1 -10 -6 0 -7 -3 -10 -6 -6 -9 9 3 37 16 37 5 0 10
-7 10 -16z m371 -104 c5 0 9 -9 9 -20 0 -14 -7 -20 -23 -20 -23 0 -23 2 -16
48 4 26 9 54 10 62 1 8 4 -4 6 -27 2 -24 8 -43 14 -43z m-239 45 c-3 -16 -11
-25 -23 -25 -24 0 -25 19 -1 36 25 19 30 17 24 -11z m-132 10 c0 -2 -5 -16
-12 -30 -8 -17 -14 -22 -19 -14 -7 13 10 49 23 49 5 0 8 -2 8 -5z m75 -45 c3
-5 -1 -10 -10 -10 -9 0 -13 5 -10 10 3 6 8 10 10 10 2 0 7 -4 10 -10z m209 -5
c-4 -8 -8 -15 -10 -15 -2 0 -4 7 -4 15 0 8 4 15 10 15 5 0 7 -7 4 -15z m-249
-15 c3 -6 -1 -7 -9 -4 -18 7 -21 14 -7 14 6 0 13 -4 16 -10z m266 -33 c-23
-23 -71 -12 -71 17 0 7 3 7 8 1 12 -17 39 -16 53 1 9 11 14 13 17 4 2 -6 -1
-17 -7 -23z m259 -23 c0 -8 -4 -12 -10 -9 -5 3 -10 10 -10 16 0 5 5 9 10 9 6
0 10 -7 10 -16z"/>
</g>
</svg>
